<svg xmlns="http://www.w3.org/2000/svg" viewBox="0 0 512 512" width="512" height="512" role="img" aria-label="Quiniela Mundial 2026">
  <defs>
    <linearGradient id="bg" x1="0" y1="0" x2="0" y2="1">
      <stop offset="0" stop-color="#22A45A"/>
      <stop offset="1" stop-color="#0E5C2C"/>
    </linearGradient>
    <radialGradient id="shine" cx="0.34" cy="0.28" r="0.85">
      <stop offset="0" stop-color="#ffffff" stop-opacity="0.28"/>
      <stop offset="1" stop-color="#ffffff" stop-opacity="0"/>
    </radialGradient>
  </defs>

  <!-- Insignia -->
  <rect x="16" y="16" width="480" height="480" rx="116" fill="url(#bg)"/>
  <rect x="16" y="16" width="480" height="480" rx="116" fill="url(#shine)"/>
  <rect x="38" y="38" width="436" height="436" rx="98" fill="none" stroke="#ffffff" stroke-opacity="0.35" stroke-width="6"/>

  <!-- Balón -->
  <g transform="translate(0,-30)">
    <circle cx="256" cy="256" r="150" fill="#ffffff"/>
    <circle cx="256" cy="256" r="150" fill="none" stroke="#0E5C2C" stroke-width="7"/>
    <g stroke="#16332A" stroke-width="13" stroke-linecap="round">
      <line x1="256" y1="198" x2="256" y2="113"/>
      <line x1="311" y1="238" x2="395" y2="210"/>
      <line x1="290" y1="303" x2="342" y2="374"/>
      <line x1="222" y1="303" x2="170" y2="374"/>
      <line x1="201" y1="238" x2="117" y2="210"/>
    </g>
    <polygon points="256,198 311,238 290,303 222,303 201,238" fill="#16332A"/>
    <g fill="#16332A">
      <polygon points="256,113 240,128 248,150 264,150 272,128"/>
      <polygon points="395,210 376,213 372,235 390,246 405,231"/>
      <polygon points="342,374 327,360 308,371 312,390 334,391"/>
      <polygon points="170,374 178,391 200,390 204,371 185,360"/>
      <polygon points="117,210 107,231 122,246 140,235 136,213"/>
    </g>
  </g>

  <!-- Cinta 2026 -->
  <g transform="translate(256,442)">
    <rect x="-112" y="-35" width="224" height="70" rx="35" fill="#F5B716"/>
    <rect x="-112" y="-35" width="224" height="70" rx="35" fill="none" stroke="#0E5C2C" stroke-opacity="0.15" stroke-width="4"/>
    <text x="0" y="17" text-anchor="middle" font-family="Arial, Helvetica, sans-serif" font-weight="800" font-size="52" fill="#0E5C2C" letter-spacing="6">2026</text>
  </g>
</svg>
